<mxfile host="app.diagrams.net" modified="2024-03-17T04:03:44.821Z" agent="Mozilla/5.0 (Windows NT 10.0; Win64; x64) AppleWebKit/537.36 (KHTML, like Gecko) Chrome/122.0.0.0 Safari/537.36 Edg/122.0.0.0" etag="fX31gxWv75Q84eRsptKt" version="24.0.6" type="device">
  <diagram name="Page-1" id="cco2iNWGkIMvETAEFhRb">
    <mxGraphModel dx="8206" dy="3620" grid="1" gridSize="10" guides="1" tooltips="1" connect="1" arrows="1" fold="1" page="1" pageScale="1" pageWidth="850" pageHeight="1100" math="0" shadow="0">
      <root>
        <mxCell id="0" />
        <mxCell id="1" parent="0" />
        <mxCell id="XVvNxpV63PPh6wQ38EFq-1" value="ON or OFF LIGHT" style="swimlane;html=1;childLayout=stackLayout;startSize=20;rounded=0;shadow=0;comic=0;labelBackgroundColor=none;strokeWidth=1;fontFamily=Verdana;fontSize=12;align=center;" parent="1" vertex="1">
          <mxGeometry x="-740" y="210" width="1500" height="1500" as="geometry">
            <mxRectangle x="270" y="30" width="50" height="40" as="alternateBounds" />
          </mxGeometry>
        </mxCell>
        <mxCell id="XVvNxpV63PPh6wQ38EFq-2" value="USER" style="swimlane;html=1;startSize=20;" parent="XVvNxpV63PPh6wQ38EFq-1" vertex="1">
          <mxGeometry y="20" width="380" height="1480" as="geometry" />
        </mxCell>
        <mxCell id="XVvNxpV63PPh6wQ38EFq-3" value="" style="ellipse;html=1;shape=startState;fillColor=#000000;strokeColor=#ff0000;" parent="XVvNxpV63PPh6wQ38EFq-2" vertex="1">
          <mxGeometry x="110" y="30" width="30" height="30" as="geometry" />
        </mxCell>
        <mxCell id="XVvNxpV63PPh6wQ38EFq-4" value="" style="edgeStyle=orthogonalEdgeStyle;html=1;verticalAlign=bottom;endArrow=open;endSize=8;strokeColor=#ff0000;rounded=0;entryX=0.5;entryY=0;entryDx=0;entryDy=0;entryPerimeter=0;" parent="XVvNxpV63PPh6wQ38EFq-2" source="XVvNxpV63PPh6wQ38EFq-3" target="XVvNxpV63PPh6wQ38EFq-5" edge="1">
          <mxGeometry relative="1" as="geometry">
            <mxPoint x="125" y="100" as="targetPoint" />
          </mxGeometry>
        </mxCell>
        <mxCell id="XVvNxpV63PPh6wQ38EFq-5" value="Press in &lt;br&gt;&quot;HOME&quot; section" style="points=[[0.25,0,0],[0.5,0,0],[0.75,0,0],[1,0.25,0],[1,0.5,0],[1,0.75,0],[0.75,1,0],[0.5,1,0],[0.25,1,0],[0,0.75,0],[0,0.5,0],[0,0.25,0]];shape=mxgraph.bpmn.task;whiteSpace=wrap;rectStyle=rounded;size=10;html=1;container=1;expand=0;collapsible=0;bpmnShapeType=call;" parent="XVvNxpV63PPh6wQ38EFq-2" vertex="1">
          <mxGeometry x="72.5" y="110" width="105" height="70" as="geometry" />
        </mxCell>
        <mxCell id="XVvNxpV63PPh6wQ38EFq-7" value="select room&amp;nbsp;" style="points=[[0.25,0,0],[0.5,0,0],[0.75,0,0],[1,0.25,0],[1,0.5,0],[1,0.75,0],[0.75,1,0],[0.5,1,0],[0.25,1,0],[0,0.75,0],[0,0.5,0],[0,0.25,0]];shape=mxgraph.bpmn.task;whiteSpace=wrap;rectStyle=rounded;size=10;html=1;container=1;expand=0;collapsible=0;bpmnShapeType=call;" parent="XVvNxpV63PPh6wQ38EFq-2" vertex="1">
          <mxGeometry x="72.5" y="330" width="105" height="70" as="geometry" />
        </mxCell>
        <mxCell id="QdZBKgHJLB8WPzBrCLVr-47" style="edgeStyle=none;rounded=0;orthogonalLoop=1;jettySize=auto;html=1;strokeColor=default;align=center;verticalAlign=middle;fontFamily=Helvetica;fontSize=11;fontColor=default;labelBackgroundColor=default;endArrow=open;endFill=1;endSize=12;" edge="1" parent="XVvNxpV63PPh6wQ38EFq-2" source="XVvNxpV63PPh6wQ38EFq-43">
          <mxGeometry relative="1" as="geometry">
            <mxPoint x="540" y="790" as="targetPoint" />
          </mxGeometry>
        </mxCell>
        <mxCell id="XVvNxpV63PPh6wQ38EFq-43" value="turn on orr of by toggle" style="points=[[0.25,0,0],[0.5,0,0],[0.75,0,0],[1,0.25,0],[1,0.5,0],[1,0.75,0],[0.75,1,0],[0.5,1,0],[0.25,1,0],[0,0.75,0],[0,0.5,0],[0,0.25,0]];shape=mxgraph.bpmn.task;whiteSpace=wrap;rectStyle=rounded;size=10;html=1;container=1;expand=0;collapsible=0;bpmnShapeType=call;" parent="XVvNxpV63PPh6wQ38EFq-2" vertex="1">
          <mxGeometry x="100" y="670" width="115" height="70" as="geometry" />
        </mxCell>
        <mxCell id="XVvNxpV63PPh6wQ38EFq-91" value="A" style="ellipse;whiteSpace=wrap;html=1;aspect=fixed;fontFamily=Helvetica;fontSize=11;fontColor=default;" parent="XVvNxpV63PPh6wQ38EFq-2" vertex="1">
          <mxGeometry x="42.5" y="440" width="30" height="30" as="geometry" />
        </mxCell>
        <mxCell id="XVvNxpV63PPh6wQ38EFq-94" style="edgeStyle=none;rounded=0;orthogonalLoop=1;jettySize=auto;html=1;entryX=0.5;entryY=1;entryDx=0;entryDy=0;entryPerimeter=0;strokeColor=default;align=center;verticalAlign=middle;fontFamily=Helvetica;fontSize=11;fontColor=default;labelBackgroundColor=default;endArrow=open;endFill=1;endSize=12;" parent="XVvNxpV63PPh6wQ38EFq-2" source="XVvNxpV63PPh6wQ38EFq-91" target="XVvNxpV63PPh6wQ38EFq-7" edge="1">
          <mxGeometry relative="1" as="geometry" />
        </mxCell>
        <mxCell id="QdZBKgHJLB8WPzBrCLVr-57" value="" style="ellipse;html=1;shape=endState;fillColor=#000000;strokeColor=#ff0000;fontFamily=Helvetica;fontSize=11;fontColor=default;" vertex="1" parent="XVvNxpV63PPh6wQ38EFq-2">
          <mxGeometry x="142.5" y="1380" width="30" height="30" as="geometry" />
        </mxCell>
        <mxCell id="XVvNxpV63PPh6wQ38EFq-35" style="edgeStyle=none;shape=connector;rounded=0;orthogonalLoop=1;jettySize=auto;html=1;entryX=0;entryY=0.5;entryDx=0;entryDy=0;entryPerimeter=0;labelBackgroundColor=default;strokeColor=default;align=center;verticalAlign=middle;fontFamily=Helvetica;fontSize=11;fontColor=default;endArrow=open;endFill=1;endSize=12;" parent="XVvNxpV63PPh6wQ38EFq-1" source="XVvNxpV63PPh6wQ38EFq-5" target="XVvNxpV63PPh6wQ38EFq-21" edge="1">
          <mxGeometry relative="1" as="geometry" />
        </mxCell>
        <mxCell id="XVvNxpV63PPh6wQ38EFq-20" value="CONTROL SYSTEM" style="swimlane;html=1;startSize=20;" parent="XVvNxpV63PPh6wQ38EFq-1" vertex="1">
          <mxGeometry x="380" y="20" width="460" height="1480" as="geometry" />
        </mxCell>
        <mxCell id="XVvNxpV63PPh6wQ38EFq-21" value="Request &quot;room&quot;&amp;nbsp;&lt;div&gt;section&lt;/div&gt;" style="points=[[0.25,0,0],[0.5,0,0],[0.75,0,0],[1,0.25,0],[1,0.5,0],[1,0.75,0],[0.75,1,0],[0.5,1,0],[0.25,1,0],[0,0.75,0],[0,0.5,0],[0,0.25,0]];shape=mxgraph.bpmn.task;whiteSpace=wrap;rectStyle=rounded;size=10;html=1;container=1;expand=0;collapsible=0;bpmnShapeType=call;" parent="XVvNxpV63PPh6wQ38EFq-20" vertex="1">
          <mxGeometry x="165" y="110" width="105" height="70" as="geometry" />
        </mxCell>
        <mxCell id="XVvNxpV63PPh6wQ38EFq-38" value="provide room&amp;nbsp;&lt;div&gt;data&lt;/div&gt;" style="points=[[0.25,0,0],[0.5,0,0],[0.75,0,0],[1,0.25,0],[1,0.5,0],[1,0.75,0],[0.75,1,0],[0.5,1,0],[0.25,1,0],[0,0.75,0],[0,0.5,0],[0,0.25,0]];shape=mxgraph.bpmn.task;whiteSpace=wrap;rectStyle=rounded;size=10;html=1;container=1;expand=0;collapsible=0;bpmnShapeType=call;" parent="XVvNxpV63PPh6wQ38EFq-20" vertex="1">
          <mxGeometry x="165" y="260" width="105" height="70" as="geometry" />
        </mxCell>
        <mxCell id="XVvNxpV63PPh6wQ38EFq-22" value="request room device" style="points=[[0.25,0,0],[0.5,0,0],[0.75,0,0],[1,0.25,0],[1,0.5,0],[1,0.75,0],[0.75,1,0],[0.5,1,0],[0.25,1,0],[0,0.75,0],[0,0.5,0],[0,0.25,0]];shape=mxgraph.bpmn.task;whiteSpace=wrap;rectStyle=rounded;size=10;html=1;container=1;expand=0;collapsible=0;bpmnShapeType=call;" parent="XVvNxpV63PPh6wQ38EFq-20" vertex="1">
          <mxGeometry x="170" y="430" width="105" height="70" as="geometry" />
        </mxCell>
        <mxCell id="QdZBKgHJLB8WPzBrCLVr-34" value="provide room device data" style="points=[[0.25,0,0],[0.5,0,0],[0.75,0,0],[1,0.25,0],[1,0.5,0],[1,0.75,0],[0.75,1,0],[0.5,1,0],[0.25,1,0],[0,0.75,0],[0,0.5,0],[0,0.25,0]];shape=mxgraph.bpmn.task;whiteSpace=wrap;rectStyle=rounded;size=10;html=1;container=1;expand=0;collapsible=0;bpmnShapeType=call;" vertex="1" parent="XVvNxpV63PPh6wQ38EFq-20">
          <mxGeometry x="165" y="600" width="105" height="70" as="geometry" />
        </mxCell>
        <mxCell id="QdZBKgHJLB8WPzBrCLVr-39" value="send command to device" style="points=[[0.25,0,0],[0.5,0,0],[0.75,0,0],[1,0.25,0],[1,0.5,0],[1,0.75,0],[0.75,1,0],[0.5,1,0],[0.25,1,0],[0,0.75,0],[0,0.5,0],[0,0.25,0]];shape=mxgraph.bpmn.task;whiteSpace=wrap;rectStyle=rounded;size=10;html=1;container=1;expand=0;collapsible=0;bpmnShapeType=call;" vertex="1" parent="XVvNxpV63PPh6wQ38EFq-20">
          <mxGeometry x="165" y="750" width="115" height="70" as="geometry" />
        </mxCell>
        <mxCell id="QdZBKgHJLB8WPzBrCLVr-49" value="send command to update DB" style="points=[[0.25,0,0],[0.5,0,0],[0.75,0,0],[1,0.25,0],[1,0.5,0],[1,0.75,0],[0.75,1,0],[0.5,1,0],[0.25,1,0],[0,0.75,0],[0,0.5,0],[0,0.25,0]];shape=mxgraph.bpmn.task;whiteSpace=wrap;rectStyle=rounded;size=10;html=1;container=1;expand=0;collapsible=0;bpmnShapeType=call;" vertex="1" parent="XVvNxpV63PPh6wQ38EFq-20">
          <mxGeometry x="160" y="1090" width="115" height="70" as="geometry" />
        </mxCell>
        <mxCell id="QdZBKgHJLB8WPzBrCLVr-55" value="send message to user" style="points=[[0.25,0,0],[0.5,0,0],[0.75,0,0],[1,0.25,0],[1,0.5,0],[1,0.75,0],[0.75,1,0],[0.5,1,0],[0.25,1,0],[0,0.75,0],[0,0.5,0],[0,0.25,0]];shape=mxgraph.bpmn.task;whiteSpace=wrap;rectStyle=rounded;size=10;html=1;container=1;expand=0;collapsible=0;bpmnShapeType=call;" vertex="1" parent="XVvNxpV63PPh6wQ38EFq-20">
          <mxGeometry x="172.5" y="1360" width="115" height="70" as="geometry" />
        </mxCell>
        <mxCell id="QdZBKgHJLB8WPzBrCLVr-1" value="Light" style="swimlane;html=1;startSize=20;" vertex="1" parent="XVvNxpV63PPh6wQ38EFq-1">
          <mxGeometry x="840" y="20" width="330" height="1480" as="geometry" />
        </mxCell>
        <mxCell id="QdZBKgHJLB8WPzBrCLVr-40" value="implement&amp;nbsp;&lt;div&gt;command&lt;/div&gt;" style="points=[[0.25,0,0],[0.5,0,0],[0.75,0,0],[1,0.25,0],[1,0.5,0],[1,0.75,0],[0.75,1,0],[0.5,1,0],[0.25,1,0],[0,0.75,0],[0,0.5,0],[0,0.25,0]];shape=mxgraph.bpmn.task;whiteSpace=wrap;rectStyle=rounded;size=10;html=1;container=1;expand=0;collapsible=0;bpmnShapeType=call;" vertex="1" parent="QdZBKgHJLB8WPzBrCLVr-1">
          <mxGeometry x="107.5" y="800" width="115" height="70" as="geometry" />
        </mxCell>
        <mxCell id="QdZBKgHJLB8WPzBrCLVr-44" value="send response" style="points=[[0.25,0,0],[0.5,0,0],[0.75,0,0],[1,0.25,0],[1,0.5,0],[1,0.75,0],[0.75,1,0],[0.5,1,0],[0.25,1,0],[0,0.75,0],[0,0.5,0],[0,0.25,0]];shape=mxgraph.bpmn.task;whiteSpace=wrap;rectStyle=rounded;size=10;html=1;container=1;expand=0;collapsible=0;bpmnShapeType=call;" vertex="1" parent="QdZBKgHJLB8WPzBrCLVr-1">
          <mxGeometry x="107.5" y="990" width="115" height="70" as="geometry" />
        </mxCell>
        <mxCell id="QdZBKgHJLB8WPzBrCLVr-45" style="edgeStyle=none;rounded=0;orthogonalLoop=1;jettySize=auto;html=1;exitX=0.5;exitY=1;exitDx=0;exitDy=0;exitPerimeter=0;strokeColor=default;align=center;verticalAlign=middle;fontFamily=Helvetica;fontSize=11;fontColor=default;labelBackgroundColor=default;endArrow=open;endFill=1;endSize=12;" edge="1" parent="QdZBKgHJLB8WPzBrCLVr-1" source="QdZBKgHJLB8WPzBrCLVr-40" target="QdZBKgHJLB8WPzBrCLVr-40">
          <mxGeometry relative="1" as="geometry" />
        </mxCell>
        <mxCell id="QdZBKgHJLB8WPzBrCLVr-46" style="edgeStyle=none;rounded=0;orthogonalLoop=1;jettySize=auto;html=1;entryX=0.5;entryY=0;entryDx=0;entryDy=0;entryPerimeter=0;strokeColor=default;align=center;verticalAlign=middle;fontFamily=Helvetica;fontSize=11;fontColor=default;labelBackgroundColor=default;endArrow=open;endFill=1;endSize=12;" edge="1" parent="QdZBKgHJLB8WPzBrCLVr-1" source="QdZBKgHJLB8WPzBrCLVr-40" target="QdZBKgHJLB8WPzBrCLVr-44">
          <mxGeometry relative="1" as="geometry" />
        </mxCell>
        <mxCell id="QdZBKgHJLB8WPzBrCLVr-21" value="Database" style="swimlane;html=1;startSize=20;" vertex="1" parent="XVvNxpV63PPh6wQ38EFq-1">
          <mxGeometry x="1170" y="20" width="330" height="1480" as="geometry" />
        </mxCell>
        <mxCell id="QdZBKgHJLB8WPzBrCLVr-22" value="return room data" style="points=[[0.25,0,0],[0.5,0,0],[0.75,0,0],[1,0.25,0],[1,0.5,0],[1,0.75,0],[0.75,1,0],[0.5,1,0],[0.25,1,0],[0,0.75,0],[0,0.5,0],[0,0.25,0]];shape=mxgraph.bpmn.task;whiteSpace=wrap;rectStyle=rounded;size=10;html=1;container=1;expand=0;collapsible=0;bpmnShapeType=call;" vertex="1" parent="QdZBKgHJLB8WPzBrCLVr-21">
          <mxGeometry x="100" y="90" width="105" height="70" as="geometry" />
        </mxCell>
        <mxCell id="QdZBKgHJLB8WPzBrCLVr-30" value="return room&lt;div&gt;device data&lt;/div&gt;" style="points=[[0.25,0,0],[0.5,0,0],[0.75,0,0],[1,0.25,0],[1,0.5,0],[1,0.75,0],[0.75,1,0],[0.5,1,0],[0.25,1,0],[0,0.75,0],[0,0.5,0],[0,0.25,0]];shape=mxgraph.bpmn.task;whiteSpace=wrap;rectStyle=rounded;size=10;html=1;container=1;expand=0;collapsible=0;bpmnShapeType=call;" vertex="1" parent="QdZBKgHJLB8WPzBrCLVr-21">
          <mxGeometry x="100" y="470" width="105" height="70" as="geometry" />
        </mxCell>
        <mxCell id="QdZBKgHJLB8WPzBrCLVr-51" value="update DB" style="points=[[0.25,0,0],[0.5,0,0],[0.75,0,0],[1,0.25,0],[1,0.5,0],[1,0.75,0],[0.75,1,0],[0.5,1,0],[0.25,1,0],[0,0.75,0],[0,0.5,0],[0,0.25,0]];shape=mxgraph.bpmn.task;whiteSpace=wrap;rectStyle=rounded;size=10;html=1;container=1;expand=0;collapsible=0;bpmnShapeType=call;" vertex="1" parent="QdZBKgHJLB8WPzBrCLVr-21">
          <mxGeometry x="100" y="1170" width="105" height="70" as="geometry" />
        </mxCell>
        <mxCell id="QdZBKgHJLB8WPzBrCLVr-53" value="send response" style="points=[[0.25,0,0],[0.5,0,0],[0.75,0,0],[1,0.25,0],[1,0.5,0],[1,0.75,0],[0.75,1,0],[0.5,1,0],[0.25,1,0],[0,0.75,0],[0,0.5,0],[0,0.25,0]];shape=mxgraph.bpmn.task;whiteSpace=wrap;rectStyle=rounded;size=10;html=1;container=1;expand=0;collapsible=0;bpmnShapeType=call;" vertex="1" parent="QdZBKgHJLB8WPzBrCLVr-21">
          <mxGeometry x="95" y="1350" width="115" height="70" as="geometry" />
        </mxCell>
        <mxCell id="QdZBKgHJLB8WPzBrCLVr-54" style="edgeStyle=none;rounded=0;orthogonalLoop=1;jettySize=auto;html=1;entryX=0.5;entryY=0;entryDx=0;entryDy=0;entryPerimeter=0;strokeColor=default;align=center;verticalAlign=middle;fontFamily=Helvetica;fontSize=11;fontColor=default;labelBackgroundColor=default;endArrow=open;endFill=1;endSize=12;" edge="1" parent="QdZBKgHJLB8WPzBrCLVr-21" source="QdZBKgHJLB8WPzBrCLVr-51" target="QdZBKgHJLB8WPzBrCLVr-53">
          <mxGeometry relative="1" as="geometry" />
        </mxCell>
        <mxCell id="QdZBKgHJLB8WPzBrCLVr-26" style="edgeStyle=none;rounded=0;orthogonalLoop=1;jettySize=auto;html=1;strokeColor=default;align=center;verticalAlign=middle;fontFamily=Helvetica;fontSize=11;fontColor=default;labelBackgroundColor=default;endArrow=open;endFill=1;endSize=12;entryX=0;entryY=0.5;entryDx=0;entryDy=0;entryPerimeter=0;" edge="1" parent="XVvNxpV63PPh6wQ38EFq-1" source="XVvNxpV63PPh6wQ38EFq-21" target="QdZBKgHJLB8WPzBrCLVr-22">
          <mxGeometry relative="1" as="geometry">
            <mxPoint x="750" y="170" as="targetPoint" />
          </mxGeometry>
        </mxCell>
        <mxCell id="QdZBKgHJLB8WPzBrCLVr-27" style="edgeStyle=none;rounded=0;orthogonalLoop=1;jettySize=auto;html=1;entryX=1;entryY=0.5;entryDx=0;entryDy=0;entryPerimeter=0;strokeColor=default;align=center;verticalAlign=middle;fontFamily=Helvetica;fontSize=11;fontColor=default;labelBackgroundColor=default;endArrow=open;endFill=1;endSize=12;" edge="1" parent="XVvNxpV63PPh6wQ38EFq-1" source="QdZBKgHJLB8WPzBrCLVr-22" target="XVvNxpV63PPh6wQ38EFq-38">
          <mxGeometry relative="1" as="geometry" />
        </mxCell>
        <mxCell id="QdZBKgHJLB8WPzBrCLVr-28" style="edgeStyle=none;rounded=0;orthogonalLoop=1;jettySize=auto;html=1;entryX=1;entryY=0.5;entryDx=0;entryDy=0;entryPerimeter=0;strokeColor=default;align=center;verticalAlign=middle;fontFamily=Helvetica;fontSize=11;fontColor=default;labelBackgroundColor=default;endArrow=open;endFill=1;endSize=12;" edge="1" parent="XVvNxpV63PPh6wQ38EFq-1" source="XVvNxpV63PPh6wQ38EFq-38" target="XVvNxpV63PPh6wQ38EFq-7">
          <mxGeometry relative="1" as="geometry" />
        </mxCell>
        <mxCell id="QdZBKgHJLB8WPzBrCLVr-29" style="edgeStyle=none;rounded=0;orthogonalLoop=1;jettySize=auto;html=1;entryX=0;entryY=0.25;entryDx=0;entryDy=0;entryPerimeter=0;strokeColor=default;align=center;verticalAlign=middle;fontFamily=Helvetica;fontSize=11;fontColor=default;labelBackgroundColor=default;endArrow=open;endFill=1;endSize=12;" edge="1" parent="XVvNxpV63PPh6wQ38EFq-1" source="XVvNxpV63PPh6wQ38EFq-7" target="XVvNxpV63PPh6wQ38EFq-22">
          <mxGeometry relative="1" as="geometry" />
        </mxCell>
        <mxCell id="QdZBKgHJLB8WPzBrCLVr-31" style="edgeStyle=none;rounded=0;orthogonalLoop=1;jettySize=auto;html=1;entryX=0;entryY=0.5;entryDx=0;entryDy=0;entryPerimeter=0;strokeColor=default;align=center;verticalAlign=middle;fontFamily=Helvetica;fontSize=11;fontColor=default;labelBackgroundColor=default;endArrow=open;endFill=1;endSize=12;" edge="1" parent="XVvNxpV63PPh6wQ38EFq-1" source="XVvNxpV63PPh6wQ38EFq-22" target="QdZBKgHJLB8WPzBrCLVr-30">
          <mxGeometry relative="1" as="geometry" />
        </mxCell>
        <mxCell id="QdZBKgHJLB8WPzBrCLVr-36" style="edgeStyle=none;rounded=0;orthogonalLoop=1;jettySize=auto;html=1;entryX=1;entryY=0.5;entryDx=0;entryDy=0;entryPerimeter=0;strokeColor=default;align=center;verticalAlign=middle;fontFamily=Helvetica;fontSize=11;fontColor=default;labelBackgroundColor=default;endArrow=open;endFill=1;endSize=12;" edge="1" parent="XVvNxpV63PPh6wQ38EFq-1" source="QdZBKgHJLB8WPzBrCLVr-30" target="QdZBKgHJLB8WPzBrCLVr-34">
          <mxGeometry relative="1" as="geometry" />
        </mxCell>
        <mxCell id="QdZBKgHJLB8WPzBrCLVr-38" style="edgeStyle=none;rounded=0;orthogonalLoop=1;jettySize=auto;html=1;entryX=1;entryY=0.5;entryDx=0;entryDy=0;entryPerimeter=0;strokeColor=default;align=center;verticalAlign=middle;fontFamily=Helvetica;fontSize=11;fontColor=default;labelBackgroundColor=default;endArrow=open;endFill=1;endSize=12;" edge="1" parent="XVvNxpV63PPh6wQ38EFq-1" source="QdZBKgHJLB8WPzBrCLVr-34" target="XVvNxpV63PPh6wQ38EFq-43">
          <mxGeometry relative="1" as="geometry" />
        </mxCell>
        <mxCell id="QdZBKgHJLB8WPzBrCLVr-48" style="edgeStyle=none;rounded=0;orthogonalLoop=1;jettySize=auto;html=1;entryX=0;entryY=0.5;entryDx=0;entryDy=0;entryPerimeter=0;strokeColor=default;align=center;verticalAlign=middle;fontFamily=Helvetica;fontSize=11;fontColor=default;labelBackgroundColor=default;endArrow=open;endFill=1;endSize=12;" edge="1" parent="XVvNxpV63PPh6wQ38EFq-1" source="QdZBKgHJLB8WPzBrCLVr-39" target="QdZBKgHJLB8WPzBrCLVr-40">
          <mxGeometry relative="1" as="geometry" />
        </mxCell>
        <mxCell id="QdZBKgHJLB8WPzBrCLVr-50" style="edgeStyle=none;rounded=0;orthogonalLoop=1;jettySize=auto;html=1;entryX=1;entryY=0.5;entryDx=0;entryDy=0;entryPerimeter=0;strokeColor=default;align=center;verticalAlign=middle;fontFamily=Helvetica;fontSize=11;fontColor=default;labelBackgroundColor=default;endArrow=open;endFill=1;endSize=12;" edge="1" parent="XVvNxpV63PPh6wQ38EFq-1" source="QdZBKgHJLB8WPzBrCLVr-44" target="QdZBKgHJLB8WPzBrCLVr-49">
          <mxGeometry relative="1" as="geometry" />
        </mxCell>
        <mxCell id="QdZBKgHJLB8WPzBrCLVr-52" style="edgeStyle=none;rounded=0;orthogonalLoop=1;jettySize=auto;html=1;entryX=0;entryY=0.5;entryDx=0;entryDy=0;entryPerimeter=0;strokeColor=default;align=center;verticalAlign=middle;fontFamily=Helvetica;fontSize=11;fontColor=default;labelBackgroundColor=default;endArrow=open;endFill=1;endSize=12;" edge="1" parent="XVvNxpV63PPh6wQ38EFq-1" source="QdZBKgHJLB8WPzBrCLVr-49" target="QdZBKgHJLB8WPzBrCLVr-51">
          <mxGeometry relative="1" as="geometry" />
        </mxCell>
        <mxCell id="QdZBKgHJLB8WPzBrCLVr-56" style="edgeStyle=none;rounded=0;orthogonalLoop=1;jettySize=auto;html=1;entryX=1;entryY=0.5;entryDx=0;entryDy=0;entryPerimeter=0;strokeColor=default;align=center;verticalAlign=middle;fontFamily=Helvetica;fontSize=11;fontColor=default;labelBackgroundColor=default;endArrow=open;endFill=1;endSize=12;" edge="1" parent="XVvNxpV63PPh6wQ38EFq-1" source="QdZBKgHJLB8WPzBrCLVr-53" target="QdZBKgHJLB8WPzBrCLVr-55">
          <mxGeometry relative="1" as="geometry" />
        </mxCell>
        <mxCell id="QdZBKgHJLB8WPzBrCLVr-58" style="edgeStyle=none;rounded=0;orthogonalLoop=1;jettySize=auto;html=1;entryX=1;entryY=0.5;entryDx=0;entryDy=0;strokeColor=default;align=center;verticalAlign=middle;fontFamily=Helvetica;fontSize=11;fontColor=default;labelBackgroundColor=default;endArrow=open;endFill=1;endSize=12;" edge="1" parent="XVvNxpV63PPh6wQ38EFq-1" source="QdZBKgHJLB8WPzBrCLVr-55" target="QdZBKgHJLB8WPzBrCLVr-57">
          <mxGeometry relative="1" as="geometry" />
        </mxCell>
        <mxCell id="QdZBKgHJLB8WPzBrCLVr-59" value="Open or close Door" style="swimlane;html=1;childLayout=stackLayout;startSize=20;rounded=0;shadow=0;comic=0;labelBackgroundColor=none;strokeWidth=1;fontFamily=Verdana;fontSize=12;align=center;" vertex="1" parent="1">
          <mxGeometry x="1250" y="220" width="1540" height="1500" as="geometry">
            <mxRectangle x="270" y="30" width="50" height="40" as="alternateBounds" />
          </mxGeometry>
        </mxCell>
        <mxCell id="QdZBKgHJLB8WPzBrCLVr-60" value="USER" style="swimlane;html=1;startSize=20;" vertex="1" parent="QdZBKgHJLB8WPzBrCLVr-59">
          <mxGeometry y="20" width="380" height="1480" as="geometry" />
        </mxCell>
        <mxCell id="QdZBKgHJLB8WPzBrCLVr-61" value="" style="ellipse;html=1;shape=startState;fillColor=#000000;strokeColor=#ff0000;" vertex="1" parent="QdZBKgHJLB8WPzBrCLVr-60">
          <mxGeometry x="110" y="30" width="30" height="30" as="geometry" />
        </mxCell>
        <mxCell id="QdZBKgHJLB8WPzBrCLVr-62" value="" style="edgeStyle=orthogonalEdgeStyle;html=1;verticalAlign=bottom;endArrow=open;endSize=8;strokeColor=#ff0000;rounded=0;entryX=0.5;entryY=0;entryDx=0;entryDy=0;entryPerimeter=0;" edge="1" parent="QdZBKgHJLB8WPzBrCLVr-60" source="QdZBKgHJLB8WPzBrCLVr-61" target="QdZBKgHJLB8WPzBrCLVr-63">
          <mxGeometry relative="1" as="geometry">
            <mxPoint x="125" y="100" as="targetPoint" />
          </mxGeometry>
        </mxCell>
        <mxCell id="QdZBKgHJLB8WPzBrCLVr-63" value="Press in &lt;br&gt;&quot;HOME&quot; section" style="points=[[0.25,0,0],[0.5,0,0],[0.75,0,0],[1,0.25,0],[1,0.5,0],[1,0.75,0],[0.75,1,0],[0.5,1,0],[0.25,1,0],[0,0.75,0],[0,0.5,0],[0,0.25,0]];shape=mxgraph.bpmn.task;whiteSpace=wrap;rectStyle=rounded;size=10;html=1;container=1;expand=0;collapsible=0;bpmnShapeType=call;" vertex="1" parent="QdZBKgHJLB8WPzBrCLVr-60">
          <mxGeometry x="72.5" y="110" width="105" height="70" as="geometry" />
        </mxCell>
        <mxCell id="QdZBKgHJLB8WPzBrCLVr-64" value="select room&amp;nbsp;" style="points=[[0.25,0,0],[0.5,0,0],[0.75,0,0],[1,0.25,0],[1,0.5,0],[1,0.75,0],[0.75,1,0],[0.5,1,0],[0.25,1,0],[0,0.75,0],[0,0.5,0],[0,0.25,0]];shape=mxgraph.bpmn.task;whiteSpace=wrap;rectStyle=rounded;size=10;html=1;container=1;expand=0;collapsible=0;bpmnShapeType=call;" vertex="1" parent="QdZBKgHJLB8WPzBrCLVr-60">
          <mxGeometry x="72.5" y="330" width="105" height="70" as="geometry" />
        </mxCell>
        <mxCell id="QdZBKgHJLB8WPzBrCLVr-65" style="edgeStyle=none;rounded=0;orthogonalLoop=1;jettySize=auto;html=1;strokeColor=default;align=center;verticalAlign=middle;fontFamily=Helvetica;fontSize=11;fontColor=default;labelBackgroundColor=default;endArrow=open;endFill=1;endSize=12;" edge="1" parent="QdZBKgHJLB8WPzBrCLVr-60" source="QdZBKgHJLB8WPzBrCLVr-66">
          <mxGeometry relative="1" as="geometry">
            <mxPoint x="540" y="790" as="targetPoint" />
          </mxGeometry>
        </mxCell>
        <mxCell id="QdZBKgHJLB8WPzBrCLVr-66" value="open or close door by toggle" style="points=[[0.25,0,0],[0.5,0,0],[0.75,0,0],[1,0.25,0],[1,0.5,0],[1,0.75,0],[0.75,1,0],[0.5,1,0],[0.25,1,0],[0,0.75,0],[0,0.5,0],[0,0.25,0]];shape=mxgraph.bpmn.task;whiteSpace=wrap;rectStyle=rounded;size=10;html=1;container=1;expand=0;collapsible=0;bpmnShapeType=call;" vertex="1" parent="QdZBKgHJLB8WPzBrCLVr-60">
          <mxGeometry x="100" y="670" width="115" height="70" as="geometry" />
        </mxCell>
        <mxCell id="QdZBKgHJLB8WPzBrCLVr-69" value="" style="ellipse;html=1;shape=endState;fillColor=#000000;strokeColor=#ff0000;fontFamily=Helvetica;fontSize=11;fontColor=default;" vertex="1" parent="QdZBKgHJLB8WPzBrCLVr-60">
          <mxGeometry x="142.5" y="1380" width="30" height="30" as="geometry" />
        </mxCell>
        <mxCell id="QdZBKgHJLB8WPzBrCLVr-70" style="edgeStyle=none;shape=connector;rounded=0;orthogonalLoop=1;jettySize=auto;html=1;entryX=0;entryY=0.5;entryDx=0;entryDy=0;entryPerimeter=0;labelBackgroundColor=default;strokeColor=default;align=center;verticalAlign=middle;fontFamily=Helvetica;fontSize=11;fontColor=default;endArrow=open;endFill=1;endSize=12;" edge="1" parent="QdZBKgHJLB8WPzBrCLVr-59" source="QdZBKgHJLB8WPzBrCLVr-63" target="QdZBKgHJLB8WPzBrCLVr-72">
          <mxGeometry relative="1" as="geometry" />
        </mxCell>
        <mxCell id="QdZBKgHJLB8WPzBrCLVr-71" value="CONTROL SYSTEM" style="swimlane;html=1;startSize=20;" vertex="1" parent="QdZBKgHJLB8WPzBrCLVr-59">
          <mxGeometry x="380" y="20" width="460" height="1480" as="geometry" />
        </mxCell>
        <mxCell id="QdZBKgHJLB8WPzBrCLVr-72" value="Request &quot;room&quot;&amp;nbsp;&lt;div&gt;section&lt;/div&gt;" style="points=[[0.25,0,0],[0.5,0,0],[0.75,0,0],[1,0.25,0],[1,0.5,0],[1,0.75,0],[0.75,1,0],[0.5,1,0],[0.25,1,0],[0,0.75,0],[0,0.5,0],[0,0.25,0]];shape=mxgraph.bpmn.task;whiteSpace=wrap;rectStyle=rounded;size=10;html=1;container=1;expand=0;collapsible=0;bpmnShapeType=call;" vertex="1" parent="QdZBKgHJLB8WPzBrCLVr-71">
          <mxGeometry x="165" y="110" width="105" height="70" as="geometry" />
        </mxCell>
        <mxCell id="QdZBKgHJLB8WPzBrCLVr-73" value="provide room&amp;nbsp;&lt;div&gt;data&lt;/div&gt;" style="points=[[0.25,0,0],[0.5,0,0],[0.75,0,0],[1,0.25,0],[1,0.5,0],[1,0.75,0],[0.75,1,0],[0.5,1,0],[0.25,1,0],[0,0.75,0],[0,0.5,0],[0,0.25,0]];shape=mxgraph.bpmn.task;whiteSpace=wrap;rectStyle=rounded;size=10;html=1;container=1;expand=0;collapsible=0;bpmnShapeType=call;" vertex="1" parent="QdZBKgHJLB8WPzBrCLVr-71">
          <mxGeometry x="165" y="260" width="105" height="70" as="geometry" />
        </mxCell>
        <mxCell id="QdZBKgHJLB8WPzBrCLVr-74" value="request room device" style="points=[[0.25,0,0],[0.5,0,0],[0.75,0,0],[1,0.25,0],[1,0.5,0],[1,0.75,0],[0.75,1,0],[0.5,1,0],[0.25,1,0],[0,0.75,0],[0,0.5,0],[0,0.25,0]];shape=mxgraph.bpmn.task;whiteSpace=wrap;rectStyle=rounded;size=10;html=1;container=1;expand=0;collapsible=0;bpmnShapeType=call;" vertex="1" parent="QdZBKgHJLB8WPzBrCLVr-71">
          <mxGeometry x="170" y="430" width="105" height="70" as="geometry" />
        </mxCell>
        <mxCell id="QdZBKgHJLB8WPzBrCLVr-75" value="provide room device data" style="points=[[0.25,0,0],[0.5,0,0],[0.75,0,0],[1,0.25,0],[1,0.5,0],[1,0.75,0],[0.75,1,0],[0.5,1,0],[0.25,1,0],[0,0.75,0],[0,0.5,0],[0,0.25,0]];shape=mxgraph.bpmn.task;whiteSpace=wrap;rectStyle=rounded;size=10;html=1;container=1;expand=0;collapsible=0;bpmnShapeType=call;" vertex="1" parent="QdZBKgHJLB8WPzBrCLVr-71">
          <mxGeometry x="165" y="600" width="105" height="70" as="geometry" />
        </mxCell>
        <mxCell id="QdZBKgHJLB8WPzBrCLVr-76" value="send command to device" style="points=[[0.25,0,0],[0.5,0,0],[0.75,0,0],[1,0.25,0],[1,0.5,0],[1,0.75,0],[0.75,1,0],[0.5,1,0],[0.25,1,0],[0,0.75,0],[0,0.5,0],[0,0.25,0]];shape=mxgraph.bpmn.task;whiteSpace=wrap;rectStyle=rounded;size=10;html=1;container=1;expand=0;collapsible=0;bpmnShapeType=call;" vertex="1" parent="QdZBKgHJLB8WPzBrCLVr-71">
          <mxGeometry x="165" y="750" width="115" height="70" as="geometry" />
        </mxCell>
        <mxCell id="QdZBKgHJLB8WPzBrCLVr-77" value="send command to update DB" style="points=[[0.25,0,0],[0.5,0,0],[0.75,0,0],[1,0.25,0],[1,0.5,0],[1,0.75,0],[0.75,1,0],[0.5,1,0],[0.25,1,0],[0,0.75,0],[0,0.5,0],[0,0.25,0]];shape=mxgraph.bpmn.task;whiteSpace=wrap;rectStyle=rounded;size=10;html=1;container=1;expand=0;collapsible=0;bpmnShapeType=call;" vertex="1" parent="QdZBKgHJLB8WPzBrCLVr-71">
          <mxGeometry x="160" y="1090" width="115" height="70" as="geometry" />
        </mxCell>
        <mxCell id="QdZBKgHJLB8WPzBrCLVr-78" value="send message to user" style="points=[[0.25,0,0],[0.5,0,0],[0.75,0,0],[1,0.25,0],[1,0.5,0],[1,0.75,0],[0.75,1,0],[0.5,1,0],[0.25,1,0],[0,0.75,0],[0,0.5,0],[0,0.25,0]];shape=mxgraph.bpmn.task;whiteSpace=wrap;rectStyle=rounded;size=10;html=1;container=1;expand=0;collapsible=0;bpmnShapeType=call;" vertex="1" parent="QdZBKgHJLB8WPzBrCLVr-71">
          <mxGeometry x="172.5" y="1360" width="115" height="70" as="geometry" />
        </mxCell>
        <mxCell id="QdZBKgHJLB8WPzBrCLVr-79" value="Door" style="swimlane;html=1;startSize=20;" vertex="1" parent="QdZBKgHJLB8WPzBrCLVr-59">
          <mxGeometry x="840" y="20" width="330" height="1480" as="geometry" />
        </mxCell>
        <mxCell id="QdZBKgHJLB8WPzBrCLVr-80" value="implement&amp;nbsp;&lt;div&gt;command&lt;/div&gt;" style="points=[[0.25,0,0],[0.5,0,0],[0.75,0,0],[1,0.25,0],[1,0.5,0],[1,0.75,0],[0.75,1,0],[0.5,1,0],[0.25,1,0],[0,0.75,0],[0,0.5,0],[0,0.25,0]];shape=mxgraph.bpmn.task;whiteSpace=wrap;rectStyle=rounded;size=10;html=1;container=1;expand=0;collapsible=0;bpmnShapeType=call;" vertex="1" parent="QdZBKgHJLB8WPzBrCLVr-79">
          <mxGeometry x="107.5" y="800" width="115" height="70" as="geometry" />
        </mxCell>
        <mxCell id="QdZBKgHJLB8WPzBrCLVr-81" value="send response" style="points=[[0.25,0,0],[0.5,0,0],[0.75,0,0],[1,0.25,0],[1,0.5,0],[1,0.75,0],[0.75,1,0],[0.5,1,0],[0.25,1,0],[0,0.75,0],[0,0.5,0],[0,0.25,0]];shape=mxgraph.bpmn.task;whiteSpace=wrap;rectStyle=rounded;size=10;html=1;container=1;expand=0;collapsible=0;bpmnShapeType=call;" vertex="1" parent="QdZBKgHJLB8WPzBrCLVr-79">
          <mxGeometry x="107.5" y="990" width="115" height="70" as="geometry" />
        </mxCell>
        <mxCell id="QdZBKgHJLB8WPzBrCLVr-82" style="edgeStyle=none;rounded=0;orthogonalLoop=1;jettySize=auto;html=1;exitX=0.5;exitY=1;exitDx=0;exitDy=0;exitPerimeter=0;strokeColor=default;align=center;verticalAlign=middle;fontFamily=Helvetica;fontSize=11;fontColor=default;labelBackgroundColor=default;endArrow=open;endFill=1;endSize=12;" edge="1" parent="QdZBKgHJLB8WPzBrCLVr-79" source="QdZBKgHJLB8WPzBrCLVr-80" target="QdZBKgHJLB8WPzBrCLVr-80">
          <mxGeometry relative="1" as="geometry" />
        </mxCell>
        <mxCell id="QdZBKgHJLB8WPzBrCLVr-83" style="edgeStyle=none;rounded=0;orthogonalLoop=1;jettySize=auto;html=1;entryX=0.5;entryY=0;entryDx=0;entryDy=0;entryPerimeter=0;strokeColor=default;align=center;verticalAlign=middle;fontFamily=Helvetica;fontSize=11;fontColor=default;labelBackgroundColor=default;endArrow=open;endFill=1;endSize=12;" edge="1" parent="QdZBKgHJLB8WPzBrCLVr-79" source="QdZBKgHJLB8WPzBrCLVr-80" target="QdZBKgHJLB8WPzBrCLVr-81">
          <mxGeometry relative="1" as="geometry" />
        </mxCell>
        <mxCell id="QdZBKgHJLB8WPzBrCLVr-84" value="Database" style="swimlane;html=1;startSize=20;" vertex="1" parent="QdZBKgHJLB8WPzBrCLVr-59">
          <mxGeometry x="1170" y="20" width="370" height="1480" as="geometry" />
        </mxCell>
        <mxCell id="QdZBKgHJLB8WPzBrCLVr-85" value="return room data" style="points=[[0.25,0,0],[0.5,0,0],[0.75,0,0],[1,0.25,0],[1,0.5,0],[1,0.75,0],[0.75,1,0],[0.5,1,0],[0.25,1,0],[0,0.75,0],[0,0.5,0],[0,0.25,0]];shape=mxgraph.bpmn.task;whiteSpace=wrap;rectStyle=rounded;size=10;html=1;container=1;expand=0;collapsible=0;bpmnShapeType=call;" vertex="1" parent="QdZBKgHJLB8WPzBrCLVr-84">
          <mxGeometry x="100" y="90" width="105" height="70" as="geometry" />
        </mxCell>
        <mxCell id="QdZBKgHJLB8WPzBrCLVr-86" value="return room&lt;div&gt;device data&lt;/div&gt;" style="points=[[0.25,0,0],[0.5,0,0],[0.75,0,0],[1,0.25,0],[1,0.5,0],[1,0.75,0],[0.75,1,0],[0.5,1,0],[0.25,1,0],[0,0.75,0],[0,0.5,0],[0,0.25,0]];shape=mxgraph.bpmn.task;whiteSpace=wrap;rectStyle=rounded;size=10;html=1;container=1;expand=0;collapsible=0;bpmnShapeType=call;" vertex="1" parent="QdZBKgHJLB8WPzBrCLVr-84">
          <mxGeometry x="100" y="470" width="105" height="70" as="geometry" />
        </mxCell>
        <mxCell id="QdZBKgHJLB8WPzBrCLVr-87" value="update DB" style="points=[[0.25,0,0],[0.5,0,0],[0.75,0,0],[1,0.25,0],[1,0.5,0],[1,0.75,0],[0.75,1,0],[0.5,1,0],[0.25,1,0],[0,0.75,0],[0,0.5,0],[0,0.25,0]];shape=mxgraph.bpmn.task;whiteSpace=wrap;rectStyle=rounded;size=10;html=1;container=1;expand=0;collapsible=0;bpmnShapeType=call;" vertex="1" parent="QdZBKgHJLB8WPzBrCLVr-84">
          <mxGeometry x="100" y="1170" width="105" height="70" as="geometry" />
        </mxCell>
        <mxCell id="QdZBKgHJLB8WPzBrCLVr-88" value="send response" style="points=[[0.25,0,0],[0.5,0,0],[0.75,0,0],[1,0.25,0],[1,0.5,0],[1,0.75,0],[0.75,1,0],[0.5,1,0],[0.25,1,0],[0,0.75,0],[0,0.5,0],[0,0.25,0]];shape=mxgraph.bpmn.task;whiteSpace=wrap;rectStyle=rounded;size=10;html=1;container=1;expand=0;collapsible=0;bpmnShapeType=call;" vertex="1" parent="QdZBKgHJLB8WPzBrCLVr-84">
          <mxGeometry x="95" y="1350" width="115" height="70" as="geometry" />
        </mxCell>
        <mxCell id="QdZBKgHJLB8WPzBrCLVr-89" style="edgeStyle=none;rounded=0;orthogonalLoop=1;jettySize=auto;html=1;entryX=0.5;entryY=0;entryDx=0;entryDy=0;entryPerimeter=0;strokeColor=default;align=center;verticalAlign=middle;fontFamily=Helvetica;fontSize=11;fontColor=default;labelBackgroundColor=default;endArrow=open;endFill=1;endSize=12;" edge="1" parent="QdZBKgHJLB8WPzBrCLVr-84" source="QdZBKgHJLB8WPzBrCLVr-87" target="QdZBKgHJLB8WPzBrCLVr-88">
          <mxGeometry relative="1" as="geometry" />
        </mxCell>
        <mxCell id="QdZBKgHJLB8WPzBrCLVr-90" style="edgeStyle=none;rounded=0;orthogonalLoop=1;jettySize=auto;html=1;strokeColor=default;align=center;verticalAlign=middle;fontFamily=Helvetica;fontSize=11;fontColor=default;labelBackgroundColor=default;endArrow=open;endFill=1;endSize=12;entryX=0;entryY=0.5;entryDx=0;entryDy=0;entryPerimeter=0;" edge="1" parent="QdZBKgHJLB8WPzBrCLVr-59" source="QdZBKgHJLB8WPzBrCLVr-72" target="QdZBKgHJLB8WPzBrCLVr-85">
          <mxGeometry relative="1" as="geometry">
            <mxPoint x="750" y="170" as="targetPoint" />
          </mxGeometry>
        </mxCell>
        <mxCell id="QdZBKgHJLB8WPzBrCLVr-91" style="edgeStyle=none;rounded=0;orthogonalLoop=1;jettySize=auto;html=1;entryX=1;entryY=0.5;entryDx=0;entryDy=0;entryPerimeter=0;strokeColor=default;align=center;verticalAlign=middle;fontFamily=Helvetica;fontSize=11;fontColor=default;labelBackgroundColor=default;endArrow=open;endFill=1;endSize=12;" edge="1" parent="QdZBKgHJLB8WPzBrCLVr-59" source="QdZBKgHJLB8WPzBrCLVr-85" target="QdZBKgHJLB8WPzBrCLVr-73">
          <mxGeometry relative="1" as="geometry" />
        </mxCell>
        <mxCell id="QdZBKgHJLB8WPzBrCLVr-92" style="edgeStyle=none;rounded=0;orthogonalLoop=1;jettySize=auto;html=1;entryX=1;entryY=0.5;entryDx=0;entryDy=0;entryPerimeter=0;strokeColor=default;align=center;verticalAlign=middle;fontFamily=Helvetica;fontSize=11;fontColor=default;labelBackgroundColor=default;endArrow=open;endFill=1;endSize=12;" edge="1" parent="QdZBKgHJLB8WPzBrCLVr-59" source="QdZBKgHJLB8WPzBrCLVr-73" target="QdZBKgHJLB8WPzBrCLVr-64">
          <mxGeometry relative="1" as="geometry" />
        </mxCell>
        <mxCell id="QdZBKgHJLB8WPzBrCLVr-93" style="edgeStyle=none;rounded=0;orthogonalLoop=1;jettySize=auto;html=1;entryX=0;entryY=0.25;entryDx=0;entryDy=0;entryPerimeter=0;strokeColor=default;align=center;verticalAlign=middle;fontFamily=Helvetica;fontSize=11;fontColor=default;labelBackgroundColor=default;endArrow=open;endFill=1;endSize=12;" edge="1" parent="QdZBKgHJLB8WPzBrCLVr-59" source="QdZBKgHJLB8WPzBrCLVr-64" target="QdZBKgHJLB8WPzBrCLVr-74">
          <mxGeometry relative="1" as="geometry" />
        </mxCell>
        <mxCell id="QdZBKgHJLB8WPzBrCLVr-94" style="edgeStyle=none;rounded=0;orthogonalLoop=1;jettySize=auto;html=1;entryX=0;entryY=0.5;entryDx=0;entryDy=0;entryPerimeter=0;strokeColor=default;align=center;verticalAlign=middle;fontFamily=Helvetica;fontSize=11;fontColor=default;labelBackgroundColor=default;endArrow=open;endFill=1;endSize=12;" edge="1" parent="QdZBKgHJLB8WPzBrCLVr-59" source="QdZBKgHJLB8WPzBrCLVr-74" target="QdZBKgHJLB8WPzBrCLVr-86">
          <mxGeometry relative="1" as="geometry" />
        </mxCell>
        <mxCell id="QdZBKgHJLB8WPzBrCLVr-95" style="edgeStyle=none;rounded=0;orthogonalLoop=1;jettySize=auto;html=1;entryX=1;entryY=0.5;entryDx=0;entryDy=0;entryPerimeter=0;strokeColor=default;align=center;verticalAlign=middle;fontFamily=Helvetica;fontSize=11;fontColor=default;labelBackgroundColor=default;endArrow=open;endFill=1;endSize=12;" edge="1" parent="QdZBKgHJLB8WPzBrCLVr-59" source="QdZBKgHJLB8WPzBrCLVr-86" target="QdZBKgHJLB8WPzBrCLVr-75">
          <mxGeometry relative="1" as="geometry" />
        </mxCell>
        <mxCell id="QdZBKgHJLB8WPzBrCLVr-96" style="edgeStyle=none;rounded=0;orthogonalLoop=1;jettySize=auto;html=1;entryX=1;entryY=0.5;entryDx=0;entryDy=0;entryPerimeter=0;strokeColor=default;align=center;verticalAlign=middle;fontFamily=Helvetica;fontSize=11;fontColor=default;labelBackgroundColor=default;endArrow=open;endFill=1;endSize=12;" edge="1" parent="QdZBKgHJLB8WPzBrCLVr-59" source="QdZBKgHJLB8WPzBrCLVr-75" target="QdZBKgHJLB8WPzBrCLVr-66">
          <mxGeometry relative="1" as="geometry" />
        </mxCell>
        <mxCell id="QdZBKgHJLB8WPzBrCLVr-97" style="edgeStyle=none;rounded=0;orthogonalLoop=1;jettySize=auto;html=1;entryX=0;entryY=0.5;entryDx=0;entryDy=0;entryPerimeter=0;strokeColor=default;align=center;verticalAlign=middle;fontFamily=Helvetica;fontSize=11;fontColor=default;labelBackgroundColor=default;endArrow=open;endFill=1;endSize=12;" edge="1" parent="QdZBKgHJLB8WPzBrCLVr-59" source="QdZBKgHJLB8WPzBrCLVr-76" target="QdZBKgHJLB8WPzBrCLVr-80">
          <mxGeometry relative="1" as="geometry" />
        </mxCell>
        <mxCell id="QdZBKgHJLB8WPzBrCLVr-98" style="edgeStyle=none;rounded=0;orthogonalLoop=1;jettySize=auto;html=1;entryX=1;entryY=0.5;entryDx=0;entryDy=0;entryPerimeter=0;strokeColor=default;align=center;verticalAlign=middle;fontFamily=Helvetica;fontSize=11;fontColor=default;labelBackgroundColor=default;endArrow=open;endFill=1;endSize=12;" edge="1" parent="QdZBKgHJLB8WPzBrCLVr-59" source="QdZBKgHJLB8WPzBrCLVr-81" target="QdZBKgHJLB8WPzBrCLVr-77">
          <mxGeometry relative="1" as="geometry" />
        </mxCell>
        <mxCell id="QdZBKgHJLB8WPzBrCLVr-99" style="edgeStyle=none;rounded=0;orthogonalLoop=1;jettySize=auto;html=1;entryX=0;entryY=0.5;entryDx=0;entryDy=0;entryPerimeter=0;strokeColor=default;align=center;verticalAlign=middle;fontFamily=Helvetica;fontSize=11;fontColor=default;labelBackgroundColor=default;endArrow=open;endFill=1;endSize=12;" edge="1" parent="QdZBKgHJLB8WPzBrCLVr-59" source="QdZBKgHJLB8WPzBrCLVr-77" target="QdZBKgHJLB8WPzBrCLVr-87">
          <mxGeometry relative="1" as="geometry" />
        </mxCell>
        <mxCell id="QdZBKgHJLB8WPzBrCLVr-100" style="edgeStyle=none;rounded=0;orthogonalLoop=1;jettySize=auto;html=1;entryX=1;entryY=0.5;entryDx=0;entryDy=0;entryPerimeter=0;strokeColor=default;align=center;verticalAlign=middle;fontFamily=Helvetica;fontSize=11;fontColor=default;labelBackgroundColor=default;endArrow=open;endFill=1;endSize=12;" edge="1" parent="QdZBKgHJLB8WPzBrCLVr-59" source="QdZBKgHJLB8WPzBrCLVr-88" target="QdZBKgHJLB8WPzBrCLVr-78">
          <mxGeometry relative="1" as="geometry" />
        </mxCell>
        <mxCell id="QdZBKgHJLB8WPzBrCLVr-101" style="edgeStyle=none;rounded=0;orthogonalLoop=1;jettySize=auto;html=1;entryX=1;entryY=0.5;entryDx=0;entryDy=0;strokeColor=default;align=center;verticalAlign=middle;fontFamily=Helvetica;fontSize=11;fontColor=default;labelBackgroundColor=default;endArrow=open;endFill=1;endSize=12;" edge="1" parent="QdZBKgHJLB8WPzBrCLVr-59" source="QdZBKgHJLB8WPzBrCLVr-78" target="QdZBKgHJLB8WPzBrCLVr-69">
          <mxGeometry relative="1" as="geometry" />
        </mxCell>
        <mxCell id="QdZBKgHJLB8WPzBrCLVr-102" value="automatic light" style="swimlane;html=1;childLayout=stackLayout;startSize=20;rounded=0;shadow=0;comic=0;labelBackgroundColor=none;strokeWidth=1;fontFamily=Verdana;fontSize=12;align=center;" vertex="1" parent="1">
          <mxGeometry x="3350" y="270" width="1120" height="1290" as="geometry">
            <mxRectangle x="270" y="30" width="50" height="40" as="alternateBounds" />
          </mxGeometry>
        </mxCell>
        <mxCell id="QdZBKgHJLB8WPzBrCLVr-111" style="edgeStyle=none;shape=connector;rounded=0;orthogonalLoop=1;jettySize=auto;html=1;entryX=0;entryY=0.5;entryDx=0;entryDy=0;entryPerimeter=0;labelBackgroundColor=default;strokeColor=default;align=center;verticalAlign=middle;fontFamily=Helvetica;fontSize=11;fontColor=default;endArrow=open;endFill=1;endSize=12;" edge="1" parent="QdZBKgHJLB8WPzBrCLVr-102" target="QdZBKgHJLB8WPzBrCLVr-113">
          <mxGeometry relative="1" as="geometry">
            <mxPoint x="177.5" y="165" as="sourcePoint" />
          </mxGeometry>
        </mxCell>
        <mxCell id="QdZBKgHJLB8WPzBrCLVr-112" value="CONTROL SYSTEM" style="swimlane;html=1;startSize=20;" vertex="1" parent="QdZBKgHJLB8WPzBrCLVr-102">
          <mxGeometry y="20" width="460" height="1270" as="geometry" />
        </mxCell>
        <mxCell id="QdZBKgHJLB8WPzBrCLVr-144" style="edgeStyle=none;rounded=0;orthogonalLoop=1;jettySize=auto;html=1;strokeColor=default;align=center;verticalAlign=middle;fontFamily=Helvetica;fontSize=11;fontColor=default;labelBackgroundColor=default;endArrow=open;endFill=1;endSize=12;entryX=0.5;entryY=0;entryDx=0;entryDy=0;entryPerimeter=0;" edge="1" parent="QdZBKgHJLB8WPzBrCLVr-112" source="QdZBKgHJLB8WPzBrCLVr-113" target="QdZBKgHJLB8WPzBrCLVr-115">
          <mxGeometry relative="1" as="geometry">
            <mxPoint x="217.5" y="270" as="targetPoint" />
          </mxGeometry>
        </mxCell>
        <mxCell id="QdZBKgHJLB8WPzBrCLVr-113" value="observing data of sensor" style="points=[[0.25,0,0],[0.5,0,0],[0.75,0,0],[1,0.25,0],[1,0.5,0],[1,0.75,0],[0.75,1,0],[0.5,1,0],[0.25,1,0],[0,0.75,0],[0,0.5,0],[0,0.25,0]];shape=mxgraph.bpmn.task;whiteSpace=wrap;rectStyle=rounded;size=10;html=1;container=1;expand=0;collapsible=0;bpmnShapeType=call;" vertex="1" parent="QdZBKgHJLB8WPzBrCLVr-112">
          <mxGeometry x="170" y="110" width="105" height="70" as="geometry" />
        </mxCell>
        <mxCell id="QdZBKgHJLB8WPzBrCLVr-115" value="Send command to device" style="points=[[0.25,0,0],[0.5,0,0],[0.75,0,0],[1,0.25,0],[1,0.5,0],[1,0.75,0],[0.75,1,0],[0.5,1,0],[0.25,1,0],[0,0.75,0],[0,0.5,0],[0,0.25,0]];shape=mxgraph.bpmn.task;whiteSpace=wrap;rectStyle=rounded;size=10;html=1;container=1;expand=0;collapsible=0;bpmnShapeType=call;" vertex="1" parent="QdZBKgHJLB8WPzBrCLVr-112">
          <mxGeometry x="170" y="280" width="105" height="70" as="geometry" />
        </mxCell>
        <mxCell id="QdZBKgHJLB8WPzBrCLVr-116" value="save new status to DB" style="points=[[0.25,0,0],[0.5,0,0],[0.75,0,0],[1,0.25,0],[1,0.5,0],[1,0.75,0],[0.75,1,0],[0.5,1,0],[0.25,1,0],[0,0.75,0],[0,0.5,0],[0,0.25,0]];shape=mxgraph.bpmn.task;whiteSpace=wrap;rectStyle=rounded;size=10;html=1;container=1;expand=0;collapsible=0;bpmnShapeType=call;" vertex="1" parent="QdZBKgHJLB8WPzBrCLVr-112">
          <mxGeometry x="182.5" y="580" width="105" height="70" as="geometry" />
        </mxCell>
        <mxCell id="QdZBKgHJLB8WPzBrCLVr-143" style="edgeStyle=none;rounded=0;orthogonalLoop=1;jettySize=auto;html=1;exitX=0.25;exitY=1;exitDx=0;exitDy=0;exitPerimeter=0;strokeColor=default;align=center;verticalAlign=middle;fontFamily=Helvetica;fontSize=11;fontColor=default;labelBackgroundColor=default;endArrow=open;endFill=1;endSize=12;" edge="1" parent="QdZBKgHJLB8WPzBrCLVr-112" source="QdZBKgHJLB8WPzBrCLVr-115" target="QdZBKgHJLB8WPzBrCLVr-115">
          <mxGeometry relative="1" as="geometry" />
        </mxCell>
        <mxCell id="QdZBKgHJLB8WPzBrCLVr-148" value="" style="ellipse;html=1;shape=endState;fillColor=#000000;strokeColor=#ff0000;fontFamily=Helvetica;fontSize=11;fontColor=default;" vertex="1" parent="QdZBKgHJLB8WPzBrCLVr-112">
          <mxGeometry x="215" y="940" width="30" height="30" as="geometry" />
        </mxCell>
        <mxCell id="QdZBKgHJLB8WPzBrCLVr-151" style="edgeStyle=none;rounded=0;orthogonalLoop=1;jettySize=auto;html=1;strokeColor=default;align=center;verticalAlign=middle;fontFamily=Helvetica;fontSize=11;fontColor=default;labelBackgroundColor=default;endArrow=open;endFill=1;endSize=12;" edge="1" parent="QdZBKgHJLB8WPzBrCLVr-112" source="QdZBKgHJLB8WPzBrCLVr-150" target="QdZBKgHJLB8WPzBrCLVr-113">
          <mxGeometry relative="1" as="geometry" />
        </mxCell>
        <mxCell id="QdZBKgHJLB8WPzBrCLVr-150" value="" style="ellipse;html=1;shape=startState;fillColor=#000000;strokeColor=#ff0000;" vertex="1" parent="QdZBKgHJLB8WPzBrCLVr-112">
          <mxGeometry x="207.5" y="40" width="30" height="30" as="geometry" />
        </mxCell>
        <mxCell id="QdZBKgHJLB8WPzBrCLVr-120" value="LIGHT" style="swimlane;html=1;startSize=20;" vertex="1" parent="QdZBKgHJLB8WPzBrCLVr-102">
          <mxGeometry x="460" y="20" width="330" height="1270" as="geometry" />
        </mxCell>
        <mxCell id="QdZBKgHJLB8WPzBrCLVr-123" style="edgeStyle=none;rounded=0;orthogonalLoop=1;jettySize=auto;html=1;exitX=0.5;exitY=1;exitDx=0;exitDy=0;exitPerimeter=0;strokeColor=default;align=center;verticalAlign=middle;fontFamily=Helvetica;fontSize=11;fontColor=default;labelBackgroundColor=default;endArrow=open;endFill=1;endSize=12;" edge="1" parent="QdZBKgHJLB8WPzBrCLVr-120">
          <mxGeometry relative="1" as="geometry">
            <mxPoint x="165" y="870" as="sourcePoint" />
            <mxPoint x="165" y="870" as="targetPoint" />
          </mxGeometry>
        </mxCell>
        <mxCell id="QdZBKgHJLB8WPzBrCLVr-127" value="implement commad" style="points=[[0.25,0,0],[0.5,0,0],[0.75,0,0],[1,0.25,0],[1,0.5,0],[1,0.75,0],[0.75,1,0],[0.5,1,0],[0.25,1,0],[0,0.75,0],[0,0.5,0],[0,0.25,0]];shape=mxgraph.bpmn.task;whiteSpace=wrap;rectStyle=rounded;size=10;html=1;container=1;expand=0;collapsible=0;bpmnShapeType=call;" vertex="1" parent="QdZBKgHJLB8WPzBrCLVr-120">
          <mxGeometry x="100" y="370" width="105" height="70" as="geometry" />
        </mxCell>
        <mxCell id="QdZBKgHJLB8WPzBrCLVr-125" value="Database" style="swimlane;html=1;startSize=20;" vertex="1" parent="QdZBKgHJLB8WPzBrCLVr-102">
          <mxGeometry x="790" y="20" width="330" height="1270" as="geometry" />
        </mxCell>
        <mxCell id="QdZBKgHJLB8WPzBrCLVr-128" value="update DB" style="points=[[0.25,0,0],[0.5,0,0],[0.75,0,0],[1,0.25,0],[1,0.5,0],[1,0.75,0],[0.75,1,0],[0.5,1,0],[0.25,1,0],[0,0.75,0],[0,0.5,0],[0,0.25,0]];shape=mxgraph.bpmn.task;whiteSpace=wrap;rectStyle=rounded;size=10;html=1;container=1;expand=0;collapsible=0;bpmnShapeType=call;" vertex="1" parent="QdZBKgHJLB8WPzBrCLVr-125">
          <mxGeometry x="80" y="730" width="105" height="70" as="geometry" />
        </mxCell>
        <mxCell id="QdZBKgHJLB8WPzBrCLVr-129" value="send response" style="points=[[0.25,0,0],[0.5,0,0],[0.75,0,0],[1,0.25,0],[1,0.5,0],[1,0.75,0],[0.75,1,0],[0.5,1,0],[0.25,1,0],[0,0.75,0],[0,0.5,0],[0,0.25,0]];shape=mxgraph.bpmn.task;whiteSpace=wrap;rectStyle=rounded;size=10;html=1;container=1;expand=0;collapsible=0;bpmnShapeType=call;" vertex="1" parent="QdZBKgHJLB8WPzBrCLVr-125">
          <mxGeometry x="75" y="920" width="115" height="70" as="geometry" />
        </mxCell>
        <mxCell id="QdZBKgHJLB8WPzBrCLVr-142" style="edgeStyle=none;rounded=0;orthogonalLoop=1;jettySize=auto;html=1;entryX=1;entryY=0.5;entryDx=0;entryDy=0;strokeColor=default;align=center;verticalAlign=middle;fontFamily=Helvetica;fontSize=11;fontColor=default;labelBackgroundColor=default;endArrow=open;endFill=1;endSize=12;" edge="1" parent="QdZBKgHJLB8WPzBrCLVr-125">
          <mxGeometry relative="1" as="geometry">
            <mxPoint x="-630" y="965" as="sourcePoint" />
            <mxPoint x="-630" y="965" as="targetPoint" />
          </mxGeometry>
        </mxCell>
        <mxCell id="QdZBKgHJLB8WPzBrCLVr-147" style="edgeStyle=none;rounded=0;orthogonalLoop=1;jettySize=auto;html=1;entryX=0.5;entryY=0;entryDx=0;entryDy=0;entryPerimeter=0;strokeColor=default;align=center;verticalAlign=middle;fontFamily=Helvetica;fontSize=11;fontColor=default;labelBackgroundColor=default;endArrow=open;endFill=1;endSize=12;" edge="1" parent="QdZBKgHJLB8WPzBrCLVr-125" source="QdZBKgHJLB8WPzBrCLVr-128" target="QdZBKgHJLB8WPzBrCLVr-129">
          <mxGeometry relative="1" as="geometry" />
        </mxCell>
        <mxCell id="QdZBKgHJLB8WPzBrCLVr-137" style="edgeStyle=none;rounded=0;orthogonalLoop=1;jettySize=auto;html=1;strokeColor=default;align=center;verticalAlign=middle;fontFamily=Helvetica;fontSize=11;fontColor=default;labelBackgroundColor=default;endArrow=open;endFill=1;endSize=12;entryX=0;entryY=0.5;entryDx=0;entryDy=0;entryPerimeter=0;" edge="1" parent="QdZBKgHJLB8WPzBrCLVr-102" source="QdZBKgHJLB8WPzBrCLVr-116" target="QdZBKgHJLB8WPzBrCLVr-128">
          <mxGeometry relative="1" as="geometry">
            <mxPoint x="730" y="700" as="targetPoint" />
          </mxGeometry>
        </mxCell>
        <mxCell id="QdZBKgHJLB8WPzBrCLVr-145" style="edgeStyle=none;rounded=0;orthogonalLoop=1;jettySize=auto;html=1;strokeColor=default;align=center;verticalAlign=middle;fontFamily=Helvetica;fontSize=11;fontColor=default;labelBackgroundColor=default;endArrow=open;endFill=1;endSize=12;" edge="1" parent="QdZBKgHJLB8WPzBrCLVr-102" source="QdZBKgHJLB8WPzBrCLVr-115" target="QdZBKgHJLB8WPzBrCLVr-127">
          <mxGeometry relative="1" as="geometry" />
        </mxCell>
        <mxCell id="QdZBKgHJLB8WPzBrCLVr-146" style="edgeStyle=none;rounded=0;orthogonalLoop=1;jettySize=auto;html=1;entryX=1;entryY=0.25;entryDx=0;entryDy=0;entryPerimeter=0;strokeColor=default;align=center;verticalAlign=middle;fontFamily=Helvetica;fontSize=11;fontColor=default;labelBackgroundColor=default;endArrow=open;endFill=1;endSize=12;" edge="1" parent="QdZBKgHJLB8WPzBrCLVr-102" source="QdZBKgHJLB8WPzBrCLVr-127" target="QdZBKgHJLB8WPzBrCLVr-116">
          <mxGeometry relative="1" as="geometry" />
        </mxCell>
        <mxCell id="QdZBKgHJLB8WPzBrCLVr-141" style="edgeStyle=none;rounded=0;orthogonalLoop=1;jettySize=auto;html=1;strokeColor=default;align=center;verticalAlign=middle;fontFamily=Helvetica;fontSize=11;fontColor=default;labelBackgroundColor=default;endArrow=open;endFill=1;endSize=12;entryX=1;entryY=0.5;entryDx=0;entryDy=0;" edge="1" parent="QdZBKgHJLB8WPzBrCLVr-102" source="QdZBKgHJLB8WPzBrCLVr-129" target="QdZBKgHJLB8WPzBrCLVr-148">
          <mxGeometry relative="1" as="geometry">
            <mxPoint x="220" y="995" as="targetPoint" />
          </mxGeometry>
        </mxCell>
      </root>
    </mxGraphModel>
  </diagram>
</mxfile>
